<!-- Generated by IcoMoon.io -->
<svg version="1.1" xmlns="http://www.w3.org/2000/svg" width="20" height="20" viewBox="0 0 20 20">
  <title>search-icon</title>
  <path d="M12.535 14.404c-1.297 0.925-2.885 1.468-4.6 1.468-4.383 0-7.935-3.553-7.935-7.935s3.553-7.935 7.935-7.935c4.383 0 7.935 3.553 7.935 7.935 0 1.715-0.544 3.302-1.468 4.6l5.214 5.214c0.514 0.514 0.509 1.335-0 1.845l-0.022 0.022c-0.508 0.508-1.336 0.51-1.845 0l-5.214-5.214zM7.936 14.005c3.351 0 6.068-2.717 6.068-6.068s-2.717-6.068-6.068-6.068c-3.351 0-6.068 2.717-6.068 6.068s2.717 6.068 6.068 6.068v0z"></path>
</svg>
